<mxfile host="app.diagrams.net" modified="2021-09-29T23:33:38.649Z" agent="5.0 (Windows NT 10.0; Win64; x64) AppleWebKit/537.36 (KHTML, like Gecko) Chrome/94.0.4606.61 Safari/537.36" etag="Na15TeDC2Z3IURL45Wem" version="15.3.8" type="github">
  <diagram id="C5RBs43oDa-KdzZeNtuy" name="Page-1">
    <mxGraphModel dx="1208" dy="523" grid="1" gridSize="10" guides="1" tooltips="1" connect="1" arrows="1" fold="1" page="1" pageScale="1" pageWidth="827" pageHeight="1169" math="0" shadow="0">
      <root>
        <mxCell id="WIyWlLk6GJQsqaUBKTNV-0" />
        <mxCell id="WIyWlLk6GJQsqaUBKTNV-1" parent="WIyWlLk6GJQsqaUBKTNV-0" />
        <mxCell id="WIyWlLk6GJQsqaUBKTNV-3" value="Base inicial" style="rounded=1;whiteSpace=wrap;html=1;fontSize=12;glass=0;strokeWidth=1;shadow=0;" parent="WIyWlLk6GJQsqaUBKTNV-1" vertex="1">
          <mxGeometry x="160" y="250" width="120" height="40" as="geometry" />
        </mxCell>
        <mxCell id="WIyWlLk6GJQsqaUBKTNV-5" value="No" style="edgeStyle=orthogonalEdgeStyle;rounded=0;html=1;jettySize=auto;orthogonalLoop=1;fontSize=11;endArrow=block;endFill=0;endSize=8;strokeWidth=1;shadow=0;labelBackgroundColor=none;exitX=0.5;exitY=1;exitDx=0;exitDy=0;entryX=1;entryY=0.5;entryDx=0;entryDy=0;" parent="WIyWlLk6GJQsqaUBKTNV-1" source="B0qHeAkYq7vbbWFBi63A-9" target="WIyWlLk6GJQsqaUBKTNV-7" edge="1">
          <mxGeometry x="0.3333" y="-10" relative="1" as="geometry">
            <mxPoint as="offset" />
            <mxPoint x="700" y="370" as="targetPoint" />
            <Array as="points">
              <mxPoint x="750" y="400" />
            </Array>
          </mxGeometry>
        </mxCell>
        <mxCell id="WIyWlLk6GJQsqaUBKTNV-7" value="Óptimo del problema maestro (MP)" style="rounded=1;whiteSpace=wrap;html=1;fontSize=12;glass=0;strokeWidth=1;shadow=0;" parent="WIyWlLk6GJQsqaUBKTNV-1" vertex="1">
          <mxGeometry x="570" y="380" width="120" height="40" as="geometry" />
        </mxCell>
        <mxCell id="B0qHeAkYq7vbbWFBi63A-0" value="Resolver el problema maestro (MP)" style="rounded=0;whiteSpace=wrap;html=1;" vertex="1" parent="WIyWlLk6GJQsqaUBKTNV-1">
          <mxGeometry x="340" y="240" width="120" height="60" as="geometry" />
        </mxCell>
        <mxCell id="B0qHeAkYq7vbbWFBi63A-1" value="Resolver el problema auxiliar (AP)" style="rounded=0;whiteSpace=wrap;html=1;" vertex="1" parent="WIyWlLk6GJQsqaUBKTNV-1">
          <mxGeometry x="520" y="240" width="120" height="60" as="geometry" />
        </mxCell>
        <mxCell id="B0qHeAkYq7vbbWFBi63A-2" value="" style="rounded=0;html=1;jettySize=auto;orthogonalLoop=1;fontSize=11;endArrow=block;endFill=0;endSize=8;strokeWidth=1;shadow=0;labelBackgroundColor=none;edgeStyle=orthogonalEdgeStyle;exitX=1;exitY=0.5;exitDx=0;exitDy=0;entryX=0;entryY=0.5;entryDx=0;entryDy=0;" edge="1" parent="WIyWlLk6GJQsqaUBKTNV-1" source="WIyWlLk6GJQsqaUBKTNV-3" target="B0qHeAkYq7vbbWFBi63A-0">
          <mxGeometry relative="1" as="geometry">
            <mxPoint x="230" y="300" as="sourcePoint" />
            <mxPoint x="230" y="350" as="targetPoint" />
            <Array as="points">
              <mxPoint x="290" y="270" />
              <mxPoint x="290" y="270" />
            </Array>
          </mxGeometry>
        </mxCell>
        <mxCell id="B0qHeAkYq7vbbWFBi63A-3" value="" style="rounded=0;html=1;jettySize=auto;orthogonalLoop=1;fontSize=11;endArrow=block;endFill=0;endSize=8;strokeWidth=1;shadow=0;labelBackgroundColor=none;edgeStyle=orthogonalEdgeStyle;exitX=1;exitY=0.5;exitDx=0;exitDy=0;entryX=0;entryY=0.5;entryDx=0;entryDy=0;" edge="1" parent="WIyWlLk6GJQsqaUBKTNV-1">
          <mxGeometry relative="1" as="geometry">
            <mxPoint x="460" y="269.88" as="sourcePoint" />
            <mxPoint x="520" y="269.88" as="targetPoint" />
            <Array as="points">
              <mxPoint x="470" y="269.88" />
              <mxPoint x="470" y="269.88" />
            </Array>
          </mxGeometry>
        </mxCell>
        <mxCell id="B0qHeAkYq7vbbWFBi63A-4" value="w&lt;span style=&quot;font-size: 10px&quot;&gt;&lt;sup&gt;T&lt;/sup&gt;&lt;/span&gt;" style="text;html=1;strokeColor=none;fillColor=none;align=center;verticalAlign=middle;whiteSpace=wrap;rounded=0;" vertex="1" parent="WIyWlLk6GJQsqaUBKTNV-1">
          <mxGeometry x="470" y="250" width="40" height="20" as="geometry" />
        </mxCell>
        <mxCell id="B0qHeAkYq7vbbWFBi63A-6" value="" style="rounded=0;html=1;jettySize=auto;orthogonalLoop=1;fontSize=11;endArrow=block;endFill=0;endSize=8;strokeWidth=1;shadow=0;labelBackgroundColor=none;edgeStyle=orthogonalEdgeStyle;exitX=1;exitY=0.5;exitDx=0;exitDy=0;entryX=0;entryY=0.5;entryDx=0;entryDy=0;" edge="1" parent="WIyWlLk6GJQsqaUBKTNV-1">
          <mxGeometry relative="1" as="geometry">
            <mxPoint x="640" y="269.67" as="sourcePoint" />
            <mxPoint x="700" y="269.67" as="targetPoint" />
            <Array as="points">
              <mxPoint x="650" y="269.67" />
              <mxPoint x="650" y="269.67" />
            </Array>
          </mxGeometry>
        </mxCell>
        <mxCell id="B0qHeAkYq7vbbWFBi63A-7" value="z&lt;sub&gt;AP&lt;/sub&gt;*" style="text;html=1;strokeColor=none;fillColor=none;align=center;verticalAlign=middle;whiteSpace=wrap;rounded=0;" vertex="1" parent="WIyWlLk6GJQsqaUBKTNV-1">
          <mxGeometry x="650" y="250" width="40" height="20" as="geometry" />
        </mxCell>
        <mxCell id="B0qHeAkYq7vbbWFBi63A-9" value="¿z&lt;sub&gt;AP&lt;/sub&gt;*&lt;span style=&quot;font-size: 10px&quot;&gt;&amp;lt;0?&lt;/span&gt;" style="rhombus;whiteSpace=wrap;html=1;shadow=0;fontFamily=Helvetica;fontSize=12;align=center;strokeWidth=1;spacing=6;spacingTop=-4;" vertex="1" parent="WIyWlLk6GJQsqaUBKTNV-1">
          <mxGeometry x="700" y="230" width="100" height="80" as="geometry" />
        </mxCell>
        <mxCell id="B0qHeAkYq7vbbWFBi63A-10" value="Si" style="edgeStyle=orthogonalEdgeStyle;rounded=0;html=1;jettySize=auto;orthogonalLoop=1;fontSize=11;endArrow=block;endFill=0;endSize=8;strokeWidth=1;shadow=0;labelBackgroundColor=none;exitX=0.5;exitY=0;exitDx=0;exitDy=0;" edge="1" parent="WIyWlLk6GJQsqaUBKTNV-1" source="B0qHeAkYq7vbbWFBi63A-9">
          <mxGeometry x="-0.5006" y="10" relative="1" as="geometry">
            <mxPoint as="offset" />
            <mxPoint x="680.0299999999997" y="130" as="sourcePoint" />
            <mxPoint x="680" y="170" as="targetPoint" />
            <Array as="points">
              <mxPoint x="750" y="170" />
            </Array>
          </mxGeometry>
        </mxCell>
        <mxCell id="B0qHeAkYq7vbbWFBi63A-12" value="El patrón de corte a&lt;sub&gt;q&lt;/sub&gt;&amp;nbsp;es un buen patrón, agrego la nueva columna a la base" style="rounded=0;whiteSpace=wrap;html=1;" vertex="1" parent="WIyWlLk6GJQsqaUBKTNV-1">
          <mxGeometry x="560" y="140" width="120" height="60" as="geometry" />
        </mxCell>
        <mxCell id="B0qHeAkYq7vbbWFBi63A-13" value="" style="rounded=0;html=1;jettySize=auto;orthogonalLoop=1;fontSize=11;endArrow=block;endFill=0;endSize=8;strokeWidth=1;shadow=0;labelBackgroundColor=none;edgeStyle=orthogonalEdgeStyle;exitX=0;exitY=0.5;exitDx=0;exitDy=0;entryX=0.5;entryY=0;entryDx=0;entryDy=0;" edge="1" parent="WIyWlLk6GJQsqaUBKTNV-1" source="B0qHeAkYq7vbbWFBi63A-12" target="B0qHeAkYq7vbbWFBi63A-0">
          <mxGeometry relative="1" as="geometry">
            <mxPoint x="460" y="120" as="sourcePoint" />
            <mxPoint x="460" y="170" as="targetPoint" />
            <Array as="points">
              <mxPoint x="400" y="170" />
            </Array>
          </mxGeometry>
        </mxCell>
      </root>
    </mxGraphModel>
  </diagram>
</mxfile>
